<svg width="200" height="58" viewBox="0 0 200 58" fill="none" xmlns="http://www.w3.org/2000/svg">
<path d="M6.872 38.04C15.64 38.52 21.576 38.76 24.68 38.76C25.416 38.76 25.992 38.552 26.408 38.136C26.856 37.688 27.08 37.096 27.08 36.36V32.04H16.04C12.68 32.04 10.232 31.288 8.696 29.784C7.192 28.248 6.44 25.8 6.44 22.44V21C6.44 17.64 7.192 15.208 8.696 13.704C10.232 12.168 12.68 11.4 16.04 11.4H32.888V18.12H17.96C16.04 18.12 15.08 19.08 15.08 21V21.96C15.08 23.88 16.04 24.84 17.96 24.84H26.6C29.736 24.84 32.04 25.576 33.512 27.048C34.984 28.52 35.72 30.824 35.72 33.96V36.36C35.72 39.496 34.984 41.8 33.512 43.272C32.04 44.744 29.736 45.48 26.6 45.48C24.968 45.48 23.24 45.448 21.416 45.384L17 45.192C13.736 45.032 10.36 44.808 6.872 44.52V38.04ZM51.3163 38.52C53.0123 38.52 54.9323 38.2 57.0763 37.56V19.56H65.4763V45H58.0363L57.5563 42.6C56.0523 43.592 54.5003 44.328 52.9003 44.808C51.3323 45.256 50.0043 45.48 48.9163 45.48H46.7563C44.5803 45.48 42.8363 44.824 41.5243 43.512C40.2123 42.2 39.5563 40.456 39.5563 38.28V19.56H47.9563V36.84C47.9563 37.32 48.1163 37.72 48.4363 38.04C48.7563 38.36 49.1563 38.52 49.6363 38.52H51.3163ZM84.8994 26.52C82.8834 26.52 80.8034 27 78.6594 27.96V45H70.2594V19.56H77.6994L78.1794 22.68C80.9314 20.28 83.8114 19.08 86.8194 19.08H88.9794V26.52H84.8994Z" fill="white"/>
<rect x="90" y="38" width="7" height="7" fill="white"/>
<rect x="104" y="38" width="90" height="7" fill="white"/>
<path d="M127.12 35C124.792 35.24 122.512 35.36 120.28 35.36C118.648 35.36 117.34 34.868 116.356 33.884C115.372 32.9 114.88 31.592 114.88 29.96V20.78H112.72V15.92H114.88L115.6 11.6H121.18V15.92H125.68V20.78H121.18V29.06C121.18 29.42 121.3 29.72 121.54 29.96C121.78 30.2 122.08 30.32 122.44 30.32H127.12V35ZM141.732 15.92H148.392L141.192 35H133.992L126.792 15.92H133.452L137.592 28.88L141.732 15.92ZM156.864 20.06C155.904 20.06 155.424 20.54 155.424 21.5V23.48H161.544V21.5C161.544 20.54 161.064 20.06 160.104 20.06H156.864ZM167.124 34.64C162.492 35.12 158.292 35.36 154.524 35.36C152.892 35.36 151.584 34.868 150.6 33.884C149.616 32.9 149.124 31.592 149.124 29.96V21.32C149.124 19.52 149.628 18.116 150.636 17.108C151.668 16.076 153.084 15.56 154.884 15.56H162.084C163.884 15.56 165.288 16.076 166.296 17.108C167.328 18.116 167.844 19.52 167.844 21.32V27.98H155.424V29.42C155.424 29.78 155.544 30.08 155.784 30.32C156.024 30.56 156.324 30.68 156.684 30.68C159.06 30.68 162.54 30.5 167.124 30.14V34.64ZM182.05 21.14C180.538 21.14 178.978 21.5 177.37 22.22V35H171.07V15.92H176.65L177.01 18.26C179.074 16.46 181.234 15.56 183.49 15.56H185.11V21.14H182.05Z" fill="white"/>
</svg>
