<svg width="200" height="58" viewBox="0 0 200 58" fill="none" xmlns="http://www.w3.org/2000/svg">
<path d="M6.87194 38.04C15.6399 38.52 21.5759 38.76 24.6799 38.76C25.4159 38.76 25.9919 38.552 26.4079 38.136C26.8559 37.688 27.0799 37.096 27.0799 36.36V32.04H16.0399C12.6799 32.04 10.2319 31.288 8.69594 29.784C7.19194 28.248 6.43994 25.8 6.43994 22.44V21C6.43994 17.64 7.19194 15.208 8.69594 13.704C10.2319 12.168 12.6799 11.4 16.0399 11.4H32.8879V18.12H17.9599C16.0399 18.12 15.0799 19.08 15.0799 21V21.96C15.0799 23.88 16.0399 24.84 17.9599 24.84H26.5999C29.7359 24.84 32.0399 25.576 33.5119 27.048C34.9839 28.52 35.7199 30.824 35.7199 33.96V36.36C35.7199 39.496 34.9839 41.8 33.5119 43.272C32.0399 44.744 29.7359 45.48 26.5999 45.48C24.9679 45.48 23.2399 45.448 21.4159 45.384L16.9999 45.192C13.7359 45.032 10.3599 44.808 6.87194 44.52V38.04ZM51.3162 38.52C53.0122 38.52 54.9322 38.2 57.0762 37.56V19.56H65.4762V45H58.0362L57.5562 42.6C56.0522 43.592 54.5002 44.328 52.9002 44.808C51.3322 45.256 50.0042 45.48 48.9162 45.48H46.7562C44.5802 45.48 42.8362 44.824 41.5242 43.512C40.2122 42.2 39.5562 40.456 39.5562 38.28V19.56H47.9562V36.84C47.9562 37.32 48.1162 37.72 48.4362 38.04C48.7562 38.36 49.1562 38.52 49.6362 38.52H51.3162ZM84.8993 26.52C82.8833 26.52 80.8033 27 78.6593 27.96V45H70.2593V19.56H77.6993L78.1793 22.68C80.9313 20.28 83.8113 19.08 86.8193 19.08H88.9793V26.52H84.8993Z" fill="#2D2D2D"/>
<path d="M97 38H90V45H97V38Z" fill="#2D2D2D"/>
<path d="M194 38H104V45H194V38Z" fill="#2D2D2D"/>
<path d="M127.12 35C124.792 35.24 122.512 35.36 120.28 35.36C118.648 35.36 117.34 34.868 116.356 33.884C115.372 32.9 114.88 31.592 114.88 29.96V20.78H112.72V15.92H114.88L115.6 11.6H121.18V15.92H125.68V20.78H121.18V29.06C121.18 29.42 121.3 29.72 121.54 29.96C121.78 30.2 122.08 30.32 122.44 30.32H127.12V35ZM141.732 15.92H148.392L141.192 35H133.992L126.792 15.92H133.452L137.592 28.88L141.732 15.92ZM156.864 20.06C155.904 20.06 155.424 20.54 155.424 21.5V23.48H161.544V21.5C161.544 20.54 161.064 20.06 160.104 20.06H156.864ZM167.124 34.64C162.492 35.12 158.292 35.36 154.524 35.36C152.892 35.36 151.584 34.868 150.6 33.884C149.616 32.9 149.124 31.592 149.124 29.96V21.32C149.124 19.52 149.628 18.116 150.636 17.108C151.668 16.076 153.084 15.56 154.884 15.56H162.084C163.884 15.56 165.288 16.076 166.296 17.108C167.328 18.116 167.844 19.52 167.844 21.32V27.98H155.424V29.42C155.424 29.78 155.544 30.08 155.784 30.32C156.024 30.56 156.324 30.68 156.684 30.68C159.06 30.68 162.54 30.5 167.124 30.14V34.64ZM182.05 21.14C180.538 21.14 178.978 21.5 177.37 22.22V35H171.07V15.92H176.65L177.01 18.26C179.074 16.46 181.234 15.56 183.49 15.56H185.11V21.14H182.05Z" fill="#2D2D2D"/>
</svg>
