<svg width="164" height="114" viewBox="0 0 164 114" fill="none" xmlns="http://www.w3.org/2000/svg">
<path d="M38 92.736H32.096V91.2H45.68V92.736H39.776V108H38V92.736ZM74.0081 91.2L66.5681 108H64.8161L57.3761 91.2H59.2961L65.7281 105.792L72.2081 91.2H74.0081ZM99.9663 106.464V108H88.0863V91.2H99.6063V92.736H89.8623V98.712H98.5503V100.224H89.8623V106.464H99.9663ZM127.253 108L123.413 102.6C122.981 102.648 122.533 102.672 122.069 102.672H117.557V108H115.781V91.2H122.069C124.213 91.2 125.893 91.712 127.109 92.736C128.325 93.76 128.933 95.168 128.933 96.96C128.933 98.272 128.597 99.384 127.925 100.296C127.269 101.192 126.325 101.84 125.093 102.24L129.197 108H127.253ZM122.021 101.16C123.685 101.16 124.957 100.792 125.837 100.056C126.717 99.32 127.157 98.288 127.157 96.96C127.157 95.6 126.717 94.56 125.837 93.84C124.957 93.104 123.685 92.736 122.021 92.736H117.557V101.16H122.021Z" fill="white"/>
<path d="M20.224 79.896C16.5973 79.896 13.0773 79.448 9.664 78.552C6.25067 77.656 3.47733 76.4613 1.344 74.968L5.504 65.624C7.50933 66.9467 9.83467 68.0133 12.48 68.824C15.1253 69.6347 17.728 70.04 20.288 70.04C25.152 70.04 27.584 68.824 27.584 66.392C27.584 65.112 26.88 64.1733 25.472 63.576C24.1067 62.936 21.888 62.2747 18.816 61.592C15.4453 60.8667 12.6293 60.0987 10.368 59.288C8.10667 58.4347 6.16533 57.0907 4.544 55.256C2.92267 53.4213 2.112 50.9466 2.112 47.832C2.112 45.1013 2.85867 42.648 4.352 40.472C5.84533 38.2533 8.064 36.504 11.008 35.224C13.9947 33.944 17.6427 33.304 21.952 33.304C24.896 33.304 27.7973 33.6453 30.656 34.328C33.5147 34.968 36.032 35.928 38.208 37.208L34.304 46.616C30.0373 44.312 25.8987 43.16 21.888 43.16C19.3707 43.16 17.536 43.544 16.384 44.312C15.232 45.0373 14.656 45.9973 14.656 47.192C14.656 48.3867 15.3387 49.2827 16.704 49.88C18.0693 50.4773 20.2667 51.096 23.296 51.736C26.7093 52.4613 29.5253 53.2507 31.744 54.104C34.0053 54.9147 35.9467 56.2373 37.568 58.072C39.232 59.864 40.064 62.3173 40.064 65.432C40.064 68.12 39.3173 70.552 37.824 72.728C36.3307 74.904 34.0907 76.6533 31.104 77.976C28.1173 79.256 24.4907 79.896 20.224 79.896ZM140.002 67.096H133.09V79H120.418V34.2H140.898C144.951 34.2 148.471 34.8826 151.458 36.248C154.444 37.5706 156.748 39.4907 158.37 42.008C159.991 44.4826 160.802 47.4053 160.802 50.776C160.802 54.0187 160.034 56.856 158.498 59.288C157.004 61.6773 154.85 63.5547 152.034 64.92L161.698 79H148.13L140.002 67.096ZM148.002 50.776C148.002 48.6853 147.34 47.064 146.018 45.912C144.695 44.76 142.732 44.184 140.13 44.184H133.09V57.304H140.13C142.732 57.304 144.695 56.7493 146.018 55.64C147.34 54.488 148.002 52.8667 148.002 50.776Z" fill="white"/>
<circle cx="79" cy="46.1364" r="35" fill="white"/>
<ellipse cx="79" cy="35" rx="31.8182" ry="35" fill="#3F3F3F"/>
<circle cx="78.2045" cy="62.8409" r="3.97727" fill="white"/>
</svg>
